<?xml version="1.0" encoding="utf-8"?>
<!-- Generator: Adobe Illustrator 23.0.2, SVG Export Plug-In . SVG Version: 6.00 Build 0)  -->
<svg version="1.1" id="Layer_1" xmlns="http://www.w3.org/2000/svg" xmlns:xlink="http://www.w3.org/1999/xlink" x="0px" y="0px"
	 viewBox="0 0 562.2 344.1" style="enable-background:new 0 0 562.2 344.1;" xml:space="preserve">
<style type="text/css">
	.st0{fill:none;stroke:#662D91;stroke-width:1.05;stroke-linecap:square;stroke-miterlimit:3;}
	.st1{fill:none;stroke:#662D91;stroke-width:0.84;stroke-linecap:square;stroke-miterlimit:3;}
	.st2{fill:#FFFFFF;stroke:#662D91;stroke-width:0.84;stroke-linecap:square;stroke-miterlimit:3;}
	.st3{fill:#FFFFFF;stroke:#662D91;stroke-width:1.05;stroke-linecap:square;stroke-miterlimit:3;}
</style>
<g id="Layer_0">
	<line vector-effect="non-scaling-stroke" class="st0" x1="238.9" y1="224.3" x2="238.9" y2="257.8"/>
	<line vector-effect="non-scaling-stroke" class="st0" x1="127.5" y1="222" x2="126.1" y2="258.3"/>
	<line vector-effect="non-scaling-stroke" class="st0" x1="134.7" y1="222" x2="133.4" y2="258.4"/>
	<line vector-effect="non-scaling-stroke" class="st0" x1="118.8" y1="221.7" x2="117.5" y2="257.9"/>
	<line vector-effect="non-scaling-stroke" class="st0" x1="111.2" y1="222" x2="109.9" y2="258.4"/>
	<line vector-effect="non-scaling-stroke" class="st0" x1="103.6" y1="221.7" x2="102.3" y2="258.4"/>
	<line vector-effect="non-scaling-stroke" class="st0" x1="86.2" y1="221.7" x2="84.9" y2="258.4"/>
	<line vector-effect="non-scaling-stroke" class="st0" x1="77.6" y1="222" x2="76.3" y2="258.4"/>
	<line vector-effect="non-scaling-stroke" class="st0" x1="68.9" y1="221.3" x2="67.6" y2="258.4"/>
	<line vector-effect="non-scaling-stroke" class="st0" x1="60" y1="220.2" x2="58.7" y2="258.4"/>
	<line vector-effect="non-scaling-stroke" class="st0" x1="50.7" y1="220.2" x2="49.4" y2="258.4"/>
	<line vector-effect="non-scaling-stroke" class="st0" x1="94.9" y1="221.7" x2="93.6" y2="258.4"/>
	<line vector-effect="non-scaling-stroke" class="st0" x1="198.9" y1="223.8" x2="198.4" y2="258.1"/>
	<line vector-effect="non-scaling-stroke" class="st0" x1="171.7" y1="223.3" x2="170.9" y2="258.3"/>
	<line vector-effect="non-scaling-stroke" class="st0" x1="164.4" y1="223.3" x2="163.9" y2="258.3"/>
	<line vector-effect="non-scaling-stroke" class="st0" x1="156.6" y1="222.4" x2="155.8" y2="257.9"/>
	<path vector-effect="non-scaling-stroke" class="st0" d="M149.8,222.4l-0.6,12.2l-1,23.8"/>
	<line vector-effect="non-scaling-stroke" class="st0" x1="141.8" y1="222.2" x2="140.5" y2="258.4"/>
	<line vector-effect="non-scaling-stroke" class="st0" x1="178.4" y1="223.3" x2="177.9" y2="257.9"/>
	<line vector-effect="non-scaling-stroke" class="st0" x1="184.9" y1="223.3" x2="184.4" y2="258.4"/>
	<line vector-effect="non-scaling-stroke" class="st0" x1="191.9" y1="223.8" x2="191.9" y2="257.9"/>
	<line vector-effect="non-scaling-stroke" class="st0" x1="206.2" y1="224.1" x2="205.7" y2="258.4"/>
	<line vector-effect="non-scaling-stroke" class="st0" x1="212.2" y1="224.3" x2="211.9" y2="258.4"/>
	<line vector-effect="non-scaling-stroke" class="st0" x1="218.9" y1="224.4" x2="218.9" y2="258.4"/>
	<line vector-effect="non-scaling-stroke" class="st0" x1="225.4" y1="224.1" x2="225.4" y2="257.6"/>
	<line vector-effect="non-scaling-stroke" class="st0" x1="232.7" y1="224.6" x2="232.7" y2="258.1"/>
	<line vector-effect="non-scaling-stroke" class="st1" x1="368.2" y1="270.7" x2="369.4" y2="298.4"/>
	<line vector-effect="non-scaling-stroke" class="st1" x1="361.1" y1="278.3" x2="361.4" y2="299.5"/>
	<line vector-effect="non-scaling-stroke" class="st1" x1="365.2" y1="275.1" x2="365.6" y2="299.5"/>
	<line vector-effect="non-scaling-stroke" class="st1" x1="373.1" y1="121.1" x2="379.4" y2="228.9"/>
	<line vector-effect="non-scaling-stroke" class="st1" x1="285.4" y1="92.8" x2="289.1" y2="250.9"/>
	<line vector-effect="non-scaling-stroke" class="st1" x1="440.5" y1="130.1" x2="448.8" y2="230.1"/>
	<line vector-effect="non-scaling-stroke" class="st1" x1="414.6" y1="126.4" x2="422.3" y2="230.1"/>
	<line vector-effect="non-scaling-stroke" class="st1" x1="427" y1="128.2" x2="435.5" y2="230.1"/>
	<line vector-effect="non-scaling-stroke" class="st1" x1="401" y1="124.5" x2="408.4" y2="230.1"/>
	<line vector-effect="non-scaling-stroke" class="st1" x1="367.2" y1="120.5" x2="373" y2="229.1"/>
	<line vector-effect="non-scaling-stroke" class="st1" x1="387" y1="122.6" x2="393.1" y2="229.7"/>
	<line vector-effect="non-scaling-stroke" class="st0" x1="363.6" y1="120.2" x2="369.4" y2="228.7"/>
	<line vector-effect="non-scaling-stroke" class="st1" x1="268.5" y1="135.4" x2="345.7" y2="142.2"/>
	<line vector-effect="non-scaling-stroke" class="st1" x1="268.7" y1="144.5" x2="345.7" y2="150.2"/>
	<line vector-effect="non-scaling-stroke" class="st1" x1="270" y1="110.7" x2="346.9" y2="118.1"/>
	<line vector-effect="non-scaling-stroke" class="st1" x1="268.1" y1="177" x2="347.4" y2="182.7"/>
	<line vector-effect="non-scaling-stroke" class="st1" x1="269.1" y1="212.5" x2="348.9" y2="217.4"/>
	<line vector-effect="non-scaling-stroke" class="st1" x1="269.5" y1="147.2" x2="346.4" y2="153.2"/>
	<line vector-effect="non-scaling-stroke" class="st1" x1="270.7" y1="113.4" x2="345.1" y2="121.1"/>
	<line vector-effect="non-scaling-stroke" class="st1" x1="268.9" y1="179.7" x2="346.4" y2="185.8"/>
	<line vector-effect="non-scaling-stroke" class="st1" x1="269.9" y1="215.6" x2="348.2" y2="220.4"/>
	<line vector-effect="non-scaling-stroke" class="st1" x1="268.4" y1="154.8" x2="346.7" y2="160.9"/>
	<line vector-effect="non-scaling-stroke" class="st1" x1="269.5" y1="121.1" x2="345.1" y2="128.9"/>
	<line vector-effect="non-scaling-stroke" class="st1" x1="269.1" y1="187.4" x2="347.4" y2="193.3"/>
	<line vector-effect="non-scaling-stroke" class="st1" x1="269.1" y1="223.3" x2="348.6" y2="228.1"/>
	<line vector-effect="non-scaling-stroke" class="st1" x1="268.7" y1="151.8" x2="346.5" y2="158.6"/>
	<line vector-effect="non-scaling-stroke" class="st1" x1="269.9" y1="118" x2="345.1" y2="126.6"/>
	<line vector-effect="non-scaling-stroke" class="st1" x1="268.1" y1="184.4" x2="346.4" y2="191.1"/>
	<line vector-effect="non-scaling-stroke" class="st0" x1="268.4" y1="220.2" x2="348.4" y2="225.8"/>
	<line vector-effect="non-scaling-stroke" class="st1" x1="268.1" y1="159.1" x2="346.4" y2="165.2"/>
	<line vector-effect="non-scaling-stroke" class="st1" x1="269.1" y1="125.3" x2="345.1" y2="133.1"/>
	<line vector-effect="non-scaling-stroke" class="st1" x1="269.1" y1="191.6" x2="347.4" y2="197.3"/>
	<line vector-effect="non-scaling-stroke" class="st1" x1="270" y1="227.5" x2="348.3" y2="232.4"/>
	<line vector-effect="non-scaling-stroke" class="st1" x1="268.6" y1="161.7" x2="346.9" y2="167.9"/>
	<line vector-effect="non-scaling-stroke" class="st1" x1="269.6" y1="127.9" x2="345.7" y2="135.4"/>
	<line vector-effect="non-scaling-stroke" class="st0" x1="268" y1="194.3" x2="347.4" y2="200.5"/>
	<line vector-effect="non-scaling-stroke" class="st0" x1="267.8" y1="230.1" x2="348.9" y2="235.1"/>
	<line vector-effect="non-scaling-stroke" class="st1" x1="268.9" y1="170" x2="346.5" y2="174.4"/>
	<line vector-effect="non-scaling-stroke" class="st1" x1="269.1" y1="203.3" x2="348.5" y2="209.3"/>
	<line vector-effect="non-scaling-stroke" class="st1" x1="268.6" y1="99.9" x2="346.5" y2="109.5"/>
	<line vector-effect="non-scaling-stroke" class="st0" x1="42.1" y1="250.9" x2="238.9" y2="250.9"/>
	<path vector-effect="non-scaling-stroke" class="st0" d="M430.7,277.2h9.8l92.1,34"/>
</g>
<g id="Layer_1_1_">
	<path vector-effect="non-scaling-stroke" class="st0" d="M359,109.5l6.2,122.1l112.2,4.2v-4.2l-108.1-3.2l-6.2-114.7l98.7,13.8
		v-4.2L359,109.5z"/>
	<path vector-effect="non-scaling-stroke" class="st0" d="M461.9,231.6l-8.3-100.9l-89.4-10.6"/>
	<line vector-effect="non-scaling-stroke" class="st0" x1="461.9" y1="127.5" x2="451.5" y2="130.7"/>
	<path vector-effect="non-scaling-stroke" class="st0" d="M380.8,111.6v-6.4L268.6,91.4"/>
	<path vector-effect="non-scaling-stroke" class="st0" d="M164.7,210.3v-10.6l6.7-7.8l92-107.9h5.2v144.4h-5.2V84"/>
	<path vector-effect="non-scaling-stroke" class="st0" d="M253,234.7l10.4-6.4h5.2L253,234.7z"/>
	<path vector-effect="non-scaling-stroke" class="st0" d="M259.3,89.3h-9.4l-78.5,96.6v6"/>
	<line vector-effect="non-scaling-stroke" class="st0" x1="249.9" y1="89.3" x2="249.9" y2="99.9"/>
	<path vector-effect="non-scaling-stroke" class="st0" d="M321.6,276.1h43.6v-6.4"/>
	<path vector-effect="non-scaling-stroke" class="st0" d="M321.6,279.3h29.1l14.5-3.2"/>
	<path vector-effect="non-scaling-stroke" class="st1" d="M359,109.5l-14.5,11.7l5.2,116.8l15.6-6.4"/>
	<path vector-effect="non-scaling-stroke" class="st0" d="M350.7,237.9l76.9,2.1l4.2,59.1"/>
	<line vector-effect="non-scaling-stroke" class="st0" x1="477.5" y1="235.8" x2="427.6" y2="243.2"/>
	<path vector-effect="non-scaling-stroke" class="st0" d="M341.3,313.3v-20.2h-19.7v-23.4h47.8v-17l-116.4-2"/>
	<line vector-effect="non-scaling-stroke" class="st0" x1="263.4" y1="231.6" x2="263.4" y2="250.7"/>
	<line vector-effect="non-scaling-stroke" class="st0" x1="266.5" y1="229.4" x2="266.5" y2="251.7"/>
	<line vector-effect="non-scaling-stroke" class="st0" x1="341.3" y1="299.8" x2="440.1" y2="299.2"/>
	<line vector-effect="non-scaling-stroke" class="st0" x1="430.7" y1="281.5" x2="442.7" y2="286.8"/>
	<line vector-effect="non-scaling-stroke" class="st1" x1="430.7" y1="283" x2="440.6" y2="287"/>
	<line vector-effect="non-scaling-stroke" class="st0" x1="440.9" y1="287.3" x2="441.7" y2="299.8"/>
	<line vector-effect="non-scaling-stroke" class="st0" x1="442.7" y1="287" x2="443.5" y2="300.6"/>
	<line vector-effect="non-scaling-stroke" class="st0" x1="440.8" y1="287.2" x2="442.7" y2="287.2"/>
	<line vector-effect="non-scaling-stroke" class="st0" x1="443" y1="287.6" x2="455.7" y2="293.7"/>
	<g>
		<line vector-effect="non-scaling-stroke" class="st0" x1="448.4" y1="290.5" x2="448.7" y2="302.4"/>
	</g>
	<line vector-effect="non-scaling-stroke" class="st0" x1="467.6" y1="337.7" x2="467.4" y2="337.7"/>
	<line vector-effect="non-scaling-stroke" class="st0" x1="455.6" y1="293.7" x2="455.9" y2="305.6"/>
	<path vector-effect="non-scaling-stroke" class="st0" d="M36.9,264.7H253v-50.1l-216.1-8.5C36.9,206.1,36.9,264.7,36.9,264.7z"/>
	<path vector-effect="non-scaling-stroke" class="st0" d="M247.8,219.9l-205.7-5.3v44.6h205.7V219.9z"/>
	<path vector-effect="non-scaling-stroke" class="st0" d="M247.8,219.9l-8.3,5.3l-197.4-5.3"/>
	<path vector-effect="non-scaling-stroke" class="st0" d="M36.9,206.1l-10.4,8.5v50.1h10.4"/>
	<path vector-effect="non-scaling-stroke" class="st0" d="M28.6,212.5v-26.6H10.9V240"/>
	<path vector-effect="non-scaling-stroke" class="st0" d="M26.5,240.1H6.8v73.3"/>
	<line vector-effect="non-scaling-stroke" class="st0" x1="6.8" y1="240.1" x2="1.7" y2="243.8"/>
	<line vector-effect="non-scaling-stroke" class="st0" x1="448.4" y1="290.5" x2="448.4" y2="302.4"/>
	<path vector-effect="non-scaling-stroke" class="st0" d="M467.1,310.4v-10.6c0.7-3.4,3.5-4.9,8.3-4.5"/>
	<path vector-effect="non-scaling-stroke" class="st0" d="M470.1,312.2v-9.8c-0.3-4.7,1.8-7.1,6.2-7.2c4.8-0.1,6.9,2.3,6.2,7.2v9.8"
		/>
	<line vector-effect="non-scaling-stroke" class="st0" x1="470.1" y1="302.8" x2="482.8" y2="302.4"/>
	<line vector-effect="non-scaling-stroke" class="st0" x1="560.6" y1="312.2" x2="1.7" y2="313.3"/>
	<path vector-effect="non-scaling-stroke" class="st0" d="M429.7,266.6h11l115.8,45.6h4.2l-115.3-45.6h-5.1"/>
	<line vector-effect="non-scaling-stroke" class="st0" x1="441.7" y1="266.6" x2="441.7" y2="278.3"/>
	<path vector-effect="non-scaling-stroke" class="st1" d="M239.8,132.8v4.2l-14.5,14.9v-3.2L239.8,132.8z"/>
	<path vector-effect="non-scaling-stroke" class="st1" d="M219.8,153.5v4.2l-14.5,14.9v-3.2L219.8,153.5z"/>
	<path vector-effect="non-scaling-stroke" class="st1" d="M200,173.7v4.2l-14.5,14.9v-3.2L200,173.7z"/>
	<path vector-effect="non-scaling-stroke" class="st1" d="M174.4,200.4l7.3-7.1l-0.4,3.5l-12,10.8l0.3-2.6L174.4,200.4z"/>
	<path vector-effect="non-scaling-stroke" class="st1" d="M239.8,167.1l-0.1,4.2l-15,14.3l0.1-3.2L239.8,167.1z"/>
	<path vector-effect="non-scaling-stroke" class="st1" d="M220.1,187.2l-0.1,4.2l-15,14.3l0.1-3.2L220.1,187.2z"/>
	<path vector-effect="non-scaling-stroke" class="st1" d="M239.5,199.1l-0.1,3.7l-10.4,9.7v-2.4L239.5,199.1z"/>
	<path vector-effect="non-scaling-stroke" class="st0" d="M10.9,185.6l-9.4,10.5v117.2"/>
</g>
<g id="Layer_2_1_">
	<line vector-effect="non-scaling-stroke" class="st1" x1="277.6" y1="92.5" x2="280.4" y2="250.7"/>
	<line vector-effect="non-scaling-stroke" class="st1" x1="368.4" y1="193.3" x2="377.7" y2="194.4"/>
	<line vector-effect="non-scaling-stroke" class="st1" x1="351" y1="238.7" x2="351.4" y2="251.4"/>
	<line vector-effect="non-scaling-stroke" class="st1" x1="355.3" y1="238.4" x2="355.9" y2="251.7"/>
	<line vector-effect="non-scaling-stroke" class="st1" x1="359.9" y1="238.7" x2="360.4" y2="251.5"/>
	<line vector-effect="non-scaling-stroke" class="st1" x1="366.1" y1="238.3" x2="366.6" y2="251.8"/>
	<line vector-effect="non-scaling-stroke" class="st1" x1="372.6" y1="238.3" x2="374.6" y2="299.2"/>
	<line vector-effect="non-scaling-stroke" class="st1" x1="382.9" y1="238.5" x2="386.3" y2="300.3"/>
	<line vector-effect="non-scaling-stroke" class="st1" x1="378.1" y1="239.1" x2="381.5" y2="300"/>
	<line vector-effect="non-scaling-stroke" class="st1" x1="388.3" y1="237.9" x2="392.3" y2="299.6"/>
	<line vector-effect="non-scaling-stroke" class="st1" x1="394.8" y1="239.7" x2="399.1" y2="300"/>
	<line vector-effect="non-scaling-stroke" class="st1" x1="399.5" y1="239.3" x2="403.7" y2="300"/>
	<line vector-effect="non-scaling-stroke" class="st1" x1="405.8" y1="239.1" x2="410.1" y2="299.6"/>
	<line vector-effect="non-scaling-stroke" class="st1" x1="412.1" y1="239.3" x2="417.3" y2="299.5"/>
	<line vector-effect="non-scaling-stroke" class="st1" x1="418.6" y1="241.1" x2="423.4" y2="299.2"/>
	<line vector-effect="non-scaling-stroke" class="st1" x1="423.4" y1="240.3" x2="427.9" y2="299.3"/>
	<line vector-effect="non-scaling-stroke" class="st1" x1="372.4" y1="126.1" x2="452.6" y2="134.2"/>
	<line vector-effect="non-scaling-stroke" class="st1" x1="373.5" y1="129.6" x2="454.6" y2="139.2"/>
	<line vector-effect="non-scaling-stroke" class="st1" x1="374.6" y1="132.8" x2="454.6" y2="142.4"/>
	<line vector-effect="non-scaling-stroke" class="st1" x1="373.5" y1="137.1" x2="454.6" y2="145.6"/>
	<line vector-effect="non-scaling-stroke" class="st1" x1="374.6" y1="140.3" x2="454.6" y2="148.8"/>
	<line vector-effect="non-scaling-stroke" class="st1" x1="374.6" y1="143.4" x2="454.6" y2="151.9"/>
	<line vector-effect="non-scaling-stroke" class="st1" x1="374.6" y1="148.8" x2="456.7" y2="156.2"/>
	<line vector-effect="non-scaling-stroke" class="st1" x1="375.6" y1="151.9" x2="456.7" y2="159.4"/>
	<line vector-effect="non-scaling-stroke" class="st1" x1="375.6" y1="156.2" x2="456.7" y2="162.6"/>
	<line vector-effect="non-scaling-stroke" class="st1" x1="375.6" y1="159.4" x2="456.7" y2="166.8"/>
	<line vector-effect="non-scaling-stroke" class="st1" x1="375.6" y1="163.6" x2="456.7" y2="170"/>
	<line vector-effect="non-scaling-stroke" class="st1" x1="375.6" y1="166.8" x2="456.7" y2="173.2"/>
	<line vector-effect="non-scaling-stroke" class="st1" x1="375.6" y1="170" x2="456.7" y2="176.4"/>
	<line vector-effect="non-scaling-stroke" class="st1" x1="375.6" y1="173.2" x2="456.7" y2="179.5"/>
	<line vector-effect="non-scaling-stroke" class="st1" x1="376.7" y1="177.4" x2="457.7" y2="183.8"/>
	<line vector-effect="non-scaling-stroke" class="st1" x1="376.7" y1="181.7" x2="458.8" y2="188"/>
	<line vector-effect="non-scaling-stroke" class="st1" x1="377.7" y1="185.9" x2="457.7" y2="191.2"/>
	<line vector-effect="non-scaling-stroke" class="st1" x1="377.7" y1="189.1" x2="457.7" y2="194.4"/>
	<line vector-effect="non-scaling-stroke" class="st1" x1="377.7" y1="198.7" x2="458.8" y2="202.9"/>
	<line vector-effect="non-scaling-stroke" class="st1" x1="377.7" y1="200.8" x2="460.8" y2="206.1"/>
	<line vector-effect="non-scaling-stroke" class="st1" x1="377.7" y1="206.1" x2="460.8" y2="210.3"/>
	<line vector-effect="non-scaling-stroke" class="st1" x1="377.7" y1="210.3" x2="460.8" y2="212.5"/>
	<line vector-effect="non-scaling-stroke" class="st1" x1="377.7" y1="213.5" x2="460.8" y2="216.7"/>
	<line vector-effect="non-scaling-stroke" class="st1" x1="377.7" y1="216.7" x2="460.8" y2="219.9"/>
	<line vector-effect="non-scaling-stroke" class="st1" x1="377.7" y1="220.9" x2="460.8" y2="225.2"/>
	<line vector-effect="non-scaling-stroke" class="st1" x1="379.8" y1="225.2" x2="460.8" y2="228.4"/>
	<path vector-effect="non-scaling-stroke" class="st1" d="M364.2,125.4c5.6,0.7,8.4,1.1,8.3,1.1"/>
	<line vector-effect="non-scaling-stroke" class="st1" x1="374.6" y1="151.9" x2="365.2" y2="150.9"/>
	<line vector-effect="non-scaling-stroke" class="st1" x1="374.6" y1="160.4" x2="365.2" y2="159.4"/>
	<line vector-effect="non-scaling-stroke" class="st1" x1="367.3" y1="185.9" x2="376.7" y2="187"/>
	<line vector-effect="non-scaling-stroke" class="st1" x1="377.7" y1="194.4" x2="458.8" y2="198.7"/>
	<line vector-effect="non-scaling-stroke" class="st1" x1="368.4" y1="220.9" x2="379.8" y2="222"/>
	<line vector-effect="non-scaling-stroke" class="st0" x1="429.7" y1="271.9" x2="364.2" y2="270.4"/>
	<line vector-effect="non-scaling-stroke" class="st1" x1="325.7" y1="279.9" x2="325.8" y2="292.8"/>
	<line vector-effect="non-scaling-stroke" class="st1" x1="333" y1="280" x2="333.1" y2="292.9"/>
	<line vector-effect="non-scaling-stroke" class="st1" x1="340.3" y1="279.9" x2="340.3" y2="293.1"/>
	<line vector-effect="non-scaling-stroke" class="st1" x1="346.7" y1="280.2" x2="346.7" y2="299.2"/>
	<line vector-effect="non-scaling-stroke" class="st1" x1="351.1" y1="279.1" x2="351" y2="299.2"/>
	<line vector-effect="non-scaling-stroke" class="st1" x1="355.9" y1="278.6" x2="355.9" y2="299.2"/>
	<line vector-effect="non-scaling-stroke" class="st0" x1="270.9" y1="91.7" x2="273" y2="249.9"/>
	<line vector-effect="non-scaling-stroke" class="st1" x1="320" y1="97.8" x2="325.4" y2="252.3"/>
	<line vector-effect="non-scaling-stroke" class="st1" x1="333.4" y1="100.1" x2="338.9" y2="253.1"/>
	<line vector-effect="non-scaling-stroke" class="st1" x1="339.9" y1="99.8" x2="344.9" y2="251.6"/>
	<line vector-effect="non-scaling-stroke" class="st1" x1="346" y1="100.1" x2="346.7" y2="118.9"/>
	<line vector-effect="non-scaling-stroke" class="st1" x1="326.5" y1="97.8" x2="331.9" y2="252.3"/>
	<line vector-effect="non-scaling-stroke" class="st1" x1="312.7" y1="96.1" x2="318" y2="252.4"/>
	<line vector-effect="non-scaling-stroke" class="st1" x1="305.9" y1="96.1" x2="311.6" y2="252.1"/>
	<line vector-effect="non-scaling-stroke" class="st1" x1="298.6" y1="94.3" x2="303.5" y2="251.6"/>
	<line vector-effect="non-scaling-stroke" class="st1" x1="292.1" y1="94.3" x2="296.6" y2="250.8"/>
	<line vector-effect="non-scaling-stroke" class="st0" x1="440.2" y1="299.2" x2="469.6" y2="311.3"/>
	<path vector-effect="non-scaling-stroke" class="st2" d="M240.6,139.2L225,155.8v11l15.6-15.5V139.2z"/>
	<path vector-effect="non-scaling-stroke" class="st2" d="M240.6,173.2L225,189.1v13.8l15.6-15.9V173.2z"/>
	<path vector-effect="non-scaling-stroke" class="st2" d="M220.8,159.4l-14.5,15.9v10.6l14.5-14.9V159.4z"/>
	<path vector-effect="non-scaling-stroke" class="st2" d="M220.8,194.9l-14.5,12.4v5.1h6.2l8.3-7.2V194.9z"/>
	<path vector-effect="non-scaling-stroke" class="st2" d="M201.1,180.6L186.5,195v10.3l14.5-14.4v-10.3H201.1z"/>
	<path vector-effect="non-scaling-stroke" class="st2" d="M182.4,199.2l-13.5,12.2h9.4l4.2-3.3L182.4,199.2L182.4,199.2z"/>
	<path vector-effect="non-scaling-stroke" class="st2" d="M240.6,142.5L226,156.9v8.8"/>
	<path vector-effect="non-scaling-stroke" class="st2" d="M240.6,176.4L226,190.9v11"/>
	<path vector-effect="non-scaling-stroke" class="st2" d="M220.8,162.6l-13.6,14.9v7.4"/>
	<path vector-effect="non-scaling-stroke" class="st2" d="M220.8,197.1l-13.6,11.1v4.2"/>
	<path vector-effect="non-scaling-stroke" class="st2" d="M201.1,182.6L187.5,196v8.2"/>
	<line vector-effect="non-scaling-stroke" class="st1" x1="182.4" y1="201.8" x2="170.9" y2="211.8"/>
	<path vector-effect="non-scaling-stroke" class="st1" d="M201.1,212.5v-3.7l-5.2,3.7"/>
	<path vector-effect="non-scaling-stroke" class="st2" d="M232.3,211.8l7.2-5.7v3.7v3.7h-9.4L232.3,211.8z"/>
	<path vector-effect="non-scaling-stroke" class="st2" d="M254.1,158.3v21.2l3.1-4.2v-21.2L254.1,158.3z"/>
	<path vector-effect="non-scaling-stroke" class="st2" d="M253.5,121.7v21.2l3.1-4.2v-21.2L253.5,121.7z"/>
	<path vector-effect="non-scaling-stroke" class="st2" d="M254.6,194.4v21.2l3.1-4.2v-21.2L254.6,194.4z"/>
	<path vector-effect="non-scaling-stroke" class="st2" d="M257.2,157.3l-2.1,3.2v17"/>
	<path vector-effect="non-scaling-stroke" class="st2" d="M256.7,120.6l-2.1,3.2v17"/>
	<path vector-effect="non-scaling-stroke" class="st3" d="M257.7,193.3l-2.1,3.2v17"/>
	<line vector-effect="non-scaling-stroke" class="st0" x1="225" y1="155.8" x2="226" y2="157.3"/>
	<line vector-effect="non-scaling-stroke" class="st1" x1="225" y1="189.1" x2="226" y2="190.9"/>
	<line vector-effect="non-scaling-stroke" class="st0" x1="254.1" y1="158.3" x2="255.1" y2="160.4"/>
	<line vector-effect="non-scaling-stroke" class="st0" x1="253.5" y1="121.7" x2="254.6" y2="123.8"/>
	<line vector-effect="non-scaling-stroke" class="st1" x1="254.6" y1="194.4" x2="255.6" y2="196.5"/>
	<line vector-effect="non-scaling-stroke" class="st1" x1="206.3" y1="175.3" x2="207.2" y2="177.4"/>
	<line vector-effect="non-scaling-stroke" class="st1" x1="186.5" y1="194.9" x2="187.5" y2="196.5"/>
	<line vector-effect="non-scaling-stroke" class="st1" x1="206.3" y1="207.1" x2="207.2" y2="208.8"/>
</g>
</svg>
